<?xml version="1.0" standalone="no"?>
<!DOCTYPE svg PUBLIC "-//W3C//DTD SVG 20010904//EN"
 "http://www.w3.org/TR/2001/REC-SVG-20010904/DTD/svg10.dtd">
<svg version="1.0" xmlns="http://www.w3.org/2000/svg"
 width="200.000000pt" height="200.000000pt" viewBox="0 0 200.000000 200.000000"
 preserveAspectRatio="xMidYMid meet">
<metadata>
Created by potrace 1.16, written by Peter Selinger 2001-2019
</metadata>
<g transform="translate(0.000000,200.000000) scale(0.100000,-0.100000)"
fill="#000000" stroke="none">
<path d="M810 1881 c-353 -77 -628 -358 -694 -710 -89 -469 193 -916 659
-1044 114 -31 334 -31 450 0 325 88 564 330 651 659 28 105 26 332 -3 439 -88
321 -325 560 -643 646 -109 30 -307 35 -420 10z m425 -81 c276 -88 479 -293
567 -570 20 -65 23 -95 23 -230 0 -135 -3 -165 -23 -230 -88 -279 -293 -484
-572 -572 -65 -20 -95 -23 -230 -23 -135 0 -165 3 -230 23 -277 88 -482 291
-570 567 -34 108 -40 312 -11 425 77 305 307 538 611 620 106 28 332 23 435
-10z"/>
<path d="M849 1735 c-147 -30 -269 -96 -378 -206 -81 -80 -128 -150 -168 -249
-30 -75 -55 -204 -51 -262 3 -38 6 -43 30 -46 31 -4 34 3 42 109 10 135 99
313 205 412 106 99 264 173 390 183 106 8 113 11 109 42 -3 25 -6 27 -58 29
-30 1 -85 -5 -121 -12z"/>
<path d="M615 1395 l-25 -24 0 -371 0 -371 25 -24 c22 -23 32 -25 115 -25 83
0 93 2 115 25 24 23 25 30 25 140 l0 115 130 0 130 0 0 -115 c0 -110 1 -117
25 -140 22 -23 32 -25 115 -25 83 0 93 2 115 25 l25 24 0 371 0 371 -25 24
c-22 23 -32 25 -115 25 -83 0 -93 -2 -115 -25 -24 -23 -25 -30 -25 -140 l0
-115 -130 0 -130 0 0 115 c0 110 -1 117 -25 140 -22 23 -32 25 -115 25 -83 0
-93 -2 -115 -25z m185 -173 c0 -86 4 -132 12 -140 17 -17 359 -17 376 0 8 8
12 54 12 140 l0 128 70 0 70 0 0 -350 0 -350 -70 0 -70 0 0 128 c0 86 -4 132
-12 140 -17 17 -359 17 -376 0 -8 -8 -12 -54 -12 -140 l0 -128 -70 0 -70 0 0
350 0 350 70 0 70 0 0 -128z"/>
</g>
</svg>
